<mxfile host="65bd71144e" modified="2020-11-01T11:07:05.029Z" agent="5.0 (Windows NT 10.0; Win64; x64) AppleWebKit/537.36 (KHTML, like Gecko) Code/1.50.1 Chrome/83.0.4103.122 Electron/9.2.1 Safari/537.36" version="13.6.5" etag="hcS5mFMaof2VPp4RzrmM">
    <diagram id="gm01xaLx72qBgZKnuGk0" name="Page-1">
        <mxGraphModel dx="992" dy="587" grid="1" gridSize="10" guides="1" tooltips="1" connect="1" arrows="1" fold="1" page="1" pageScale="1" pageWidth="850" pageHeight="1100" math="0" shadow="0">
            <root>
                <mxCell id="0"/>
                <mxCell id="1" parent="0"/>
                <mxCell id="4" value="main" style="shape=umlLifeline;perimeter=lifelinePerimeter;whiteSpace=wrap;html=1;container=1;collapsible=0;recursiveResize=0;outlineConnect=0;" vertex="1" parent="1">
                    <mxGeometry x="40" y="40" width="120" height="490" as="geometry"/>
                </mxCell>
                <mxCell id="6" value="" style="html=1;points=[];perimeter=orthogonalPerimeter;" vertex="1" parent="1">
                    <mxGeometry x="95" y="110" width="10" height="450" as="geometry"/>
                </mxCell>
                <mxCell id="9" value="&amp;lt;&amp;lt;static&amp;gt;&amp;gt;&lt;br&gt;Singleton" style="shape=umlLifeline;perimeter=lifelinePerimeter;whiteSpace=wrap;html=1;container=1;collapsible=0;recursiveResize=0;outlineConnect=0;" vertex="1" parent="1">
                    <mxGeometry x="280" y="40" width="120" height="320" as="geometry"/>
                </mxCell>
                <mxCell id="10" value="" style="html=1;points=[];perimeter=orthogonalPerimeter;" vertex="1" parent="9">
                    <mxGeometry x="55" y="70" width="10" height="90" as="geometry"/>
                </mxCell>
                <mxCell id="22" value="" style="html=1;points=[];perimeter=orthogonalPerimeter;" vertex="1" parent="9">
                    <mxGeometry x="55" y="230" width="10" height="90" as="geometry"/>
                </mxCell>
                <mxCell id="12" value="getInstance(&quot;FOO&quot;)" style="html=1;verticalAlign=bottom;endArrow=block;" edge="1" parent="1" source="6" target="10">
                    <mxGeometry width="80" relative="1" as="geometry">
                        <mxPoint x="360" y="210" as="sourcePoint"/>
                        <mxPoint x="440" y="210" as="targetPoint"/>
                        <Array as="points">
                            <mxPoint x="280" y="110"/>
                        </Array>
                    </mxGeometry>
                </mxCell>
                <mxCell id="13" value="instance:Singleton" style="shape=umlLifeline;perimeter=lifelinePerimeter;whiteSpace=wrap;html=1;container=1;collapsible=0;recursiveResize=0;outlineConnect=0;" vertex="1" parent="1">
                    <mxGeometry x="520" y="140" width="120" height="420" as="geometry"/>
                </mxCell>
                <mxCell id="16" value="" style="html=1;points=[];perimeter=orthogonalPerimeter;" vertex="1" parent="13">
                    <mxGeometry height="40" as="geometry"/>
                </mxCell>
                <mxCell id="17" value="" style="html=1;points=[];perimeter=orthogonalPerimeter;" vertex="1" parent="13">
                    <mxGeometry x="55" y="266" width="10" height="40" as="geometry"/>
                </mxCell>
                <mxCell id="26" value="" style="html=1;points=[];perimeter=orthogonalPerimeter;" vertex="1" parent="13">
                    <mxGeometry x="55" y="369" width="10" height="40" as="geometry"/>
                </mxCell>
                <mxCell id="15" value="new Singleton(&quot;FOO&quot;)" style="html=1;verticalAlign=bottom;endArrow=block;" edge="1" parent="1" source="10" target="16">
                    <mxGeometry width="80" relative="1" as="geometry">
                        <mxPoint x="335" y="160" as="sourcePoint"/>
                        <mxPoint x="590" y="200" as="targetPoint"/>
                        <Array as="points">
                            <mxPoint x="420" y="160"/>
                        </Array>
                    </mxGeometry>
                </mxCell>
                <mxCell id="19" value="return instance" style="html=1;verticalAlign=bottom;endArrow=open;dashed=1;endSize=8;" edge="1" parent="1" source="10" target="6">
                    <mxGeometry relative="1" as="geometry">
                        <mxPoint x="320" y="189.66" as="sourcePoint"/>
                        <mxPoint x="150" y="189.66" as="targetPoint"/>
                        <Array as="points">
                            <mxPoint x="250" y="200"/>
                        </Array>
                    </mxGeometry>
                </mxCell>
                <mxCell id="20" value="getInstance(&quot;FOO&quot;)" style="html=1;verticalAlign=bottom;endArrow=block;entryX=0.728;entryY=0.014;entryDx=0;entryDy=0;entryPerimeter=0;" edge="1" parent="1" source="6" target="22">
                    <mxGeometry width="80" relative="1" as="geometry">
                        <mxPoint x="105" y="270" as="sourcePoint"/>
                        <mxPoint x="320" y="270" as="targetPoint"/>
                        <Array as="points">
                            <mxPoint x="280" y="270"/>
                        </Array>
                    </mxGeometry>
                </mxCell>
                <mxCell id="21" value="return instance" style="html=1;verticalAlign=bottom;endArrow=open;dashed=1;endSize=8;" edge="1" parent="1" source="22" target="6">
                    <mxGeometry relative="1" as="geometry">
                        <mxPoint x="310" y="340" as="sourcePoint"/>
                        <mxPoint x="105" y="340" as="targetPoint"/>
                        <Array as="points">
                            <mxPoint x="290" y="360"/>
                        </Array>
                    </mxGeometry>
                </mxCell>
                <mxCell id="23" value="singleton.value" style="html=1;verticalAlign=bottom;endArrow=block;" edge="1" parent="1" target="17">
                    <mxGeometry width="80" relative="1" as="geometry">
                        <mxPoint x="105" y="406" as="sourcePoint"/>
                        <mxPoint x="487.28" y="407.26" as="targetPoint"/>
                        <Array as="points">
                            <mxPoint x="425" y="406"/>
                        </Array>
                    </mxGeometry>
                </mxCell>
                <mxCell id="25" value="return &quot;FOO&quot;" style="html=1;verticalAlign=bottom;endArrow=open;dashed=1;endSize=8;" edge="1" parent="1" source="17">
                    <mxGeometry relative="1" as="geometry">
                        <mxPoint x="390" y="456" as="sourcePoint"/>
                        <mxPoint x="105" y="446" as="targetPoint"/>
                        <Array as="points">
                            <mxPoint x="520" y="446"/>
                        </Array>
                    </mxGeometry>
                </mxCell>
                <mxCell id="27" value="anotherSingleton.value" style="html=1;verticalAlign=bottom;endArrow=block;" edge="1" parent="1" target="26">
                    <mxGeometry width="80" relative="1" as="geometry">
                        <mxPoint x="105" y="509" as="sourcePoint"/>
                        <mxPoint x="487.28" y="510.26" as="targetPoint"/>
                        <Array as="points">
                            <mxPoint x="425" y="509"/>
                        </Array>
                    </mxGeometry>
                </mxCell>
                <mxCell id="28" value="return &quot;FOO&quot;" style="html=1;verticalAlign=bottom;endArrow=open;dashed=1;endSize=8;" edge="1" parent="1" source="26">
                    <mxGeometry relative="1" as="geometry">
                        <mxPoint x="390" y="559" as="sourcePoint"/>
                        <mxPoint x="105" y="549" as="targetPoint"/>
                        <Array as="points">
                            <mxPoint x="520" y="549"/>
                        </Array>
                    </mxGeometry>
                </mxCell>
            </root>
        </mxGraphModel>
    </diagram>
</mxfile>